<svg id="visual" viewBox="0 0 900 100" width="900" height="100" xmlns="http://www.w3.org/2000/svg" xmlns:xlink="http://www.w3.org/1999/xlink" version="1.1"><rect x="0" y="0" width="900" height="100" fill="#ffffff"></rect><path d="M0 72L12.5 70.3C25 68.7 50 65.3 75 64.3C100 63.3 125 64.7 150 67C175 69.3 200 72.7 225 72.2C250 71.7 275 67.3 300 63.7C325 60 350 57 375 59.7C400 62.3 425 70.7 450 74.3C475 78 500 77 525 71.7C550 66.3 575 56.7 600 56C625 55.3 650 63.7 675 63.8C700 64 725 56 750 54.5C775 53 800 58 825 58.5C850 59 875 55 887.5 53L900 51L900 101L887.5 101C875 101 850 101 825 101C800 101 775 101 750 101C725 101 700 101 675 101C650 101 625 101 600 101C575 101 550 101 525 101C500 101 475 101 450 101C425 101 400 101 375 101C350 101 325 101 300 101C275 101 250 101 225 101C200 101 175 101 150 101C125 101 100 101 75 101C50 101 25 101 12.5 101L0 101Z" fill="#99FF97" stroke-linecap="round" stroke-linejoin="miter"></path></svg>