<svg id="visual" viewBox="0 0 900 300" width="900" height="300" xmlns="http://www.w3.org/2000/svg" xmlns:xlink="http://www.w3.org/1999/xlink" version="1.1"><rect x="0" y="0" width="900" height="300" fill="#ffffff"></rect><g transform="translate(430.3404992757007 138.3782499905163)"><path d="M89.3 -107.3C119 -101.3 148.7 -79.6 161.5 -50.1C174.4 -20.6 170.4 16.7 152.5 42.7C134.7 68.7 102.9 83.3 75.2 99.3C47.4 115.3 23.7 132.6 0.2 132.4C-23.3 132.1 -46.6 114.2 -65.7 95.4C-84.7 76.5 -99.4 56.8 -111.8 32.9C-124.3 9.1 -134.4 -19 -127.5 -41.9C-120.7 -64.8 -96.8 -82.5 -72.7 -90.3C-48.6 -98.1 -24.3 -95.9 2.7 -99.7C29.8 -103.5 59.6 -113.2 89.3 -107.3" fill="#99FF97"></path></g></svg>