<svg id="visual" viewBox="0 0 900 300" width="900" height="300" xmlns="http://www.w3.org/2000/svg" xmlns:xlink="http://www.w3.org/1999/xlink" version="1.1"><rect x="0" y="0" width="900" height="300" fill="#ffffff"></rect><path d="M0 190L21.5 190.8C43 191.7 86 193.3 128.8 197.5C171.7 201.7 214.3 208.3 257.2 207.7C300 207 343 199 385.8 199.3C428.7 199.7 471.3 208.3 514.2 210.3C557 212.3 600 207.7 642.8 202.8C685.7 198 728.3 193 771.2 189.7C814 186.3 857 184.7 878.5 183.8L900 183L900 301L878.5 301C857 301 814 301 771.2 301C728.3 301 685.7 301 642.8 301C600 301 557 301 514.2 301C471.3 301 428.7 301 385.8 301C343 301 300 301 257.2 301C214.3 301 171.7 301 128.8 301C86 301 43 301 21.5 301L0 301Z" fill="#99ff97"></path><path d="M0 197L21.5 200.3C43 203.7 86 210.3 128.8 212.3C171.7 214.3 214.3 211.7 257.2 210.8C300 210 343 211 385.8 216C428.7 221 471.3 230 514.2 231.8C557 233.7 600 228.3 642.8 223.7C685.7 219 728.3 215 771.2 214.5C814 214 857 217 878.5 218.5L900 220L900 301L878.5 301C857 301 814 301 771.2 301C728.3 301 685.7 301 642.8 301C600 301 557 301 514.2 301C471.3 301 428.7 301 385.8 301C343 301 300 301 257.2 301C214.3 301 171.7 301 128.8 301C86 301 43 301 21.5 301L0 301Z" fill="#7be787"></path><path d="M0 231L21.5 234.8C43 238.7 86 246.3 128.8 249.7C171.7 253 214.3 252 257.2 247C300 242 343 233 385.8 231.2C428.7 229.3 471.3 234.7 514.2 236.5C557 238.3 600 236.7 642.8 235.2C685.7 233.7 728.3 232.3 771.2 234C814 235.7 857 240.3 878.5 242.7L900 245L900 301L878.5 301C857 301 814 301 771.2 301C728.3 301 685.7 301 642.8 301C600 301 557 301 514.2 301C471.3 301 428.7 301 385.8 301C343 301 300 301 257.2 301C214.3 301 171.7 301 128.8 301C86 301 43 301 21.5 301L0 301Z" fill="#5cd077"></path><path d="M0 254L21.5 252.8C43 251.7 86 249.3 128.8 248.2C171.7 247 214.3 247 257.2 246C300 245 343 243 385.8 244.8C428.7 246.7 471.3 252.3 514.2 253.8C557 255.3 600 252.7 642.8 250.2C685.7 247.7 728.3 245.3 771.2 245.3C814 245.3 857 247.7 878.5 248.8L900 250L900 301L878.5 301C857 301 814 301 771.2 301C728.3 301 685.7 301 642.8 301C600 301 557 301 514.2 301C471.3 301 428.7 301 385.8 301C343 301 300 301 257.2 301C214.3 301 171.7 301 128.8 301C86 301 43 301 21.5 301L0 301Z" fill="#3ab967"></path><path d="M0 268L21.5 268.7C43 269.3 86 270.7 128.8 269.8C171.7 269 214.3 266 257.2 264.8C300 263.7 343 264.3 385.8 268.2C428.7 272 471.3 279 514.2 279.3C557 279.7 600 273.3 642.8 270.5C685.7 267.7 728.3 268.3 771.2 269.8C814 271.3 857 273.7 878.5 274.8L900 276L900 301L878.5 301C857 301 814 301 771.2 301C728.3 301 685.7 301 642.8 301C600 301 557 301 514.2 301C471.3 301 428.7 301 385.8 301C343 301 300 301 257.2 301C214.3 301 171.7 301 128.8 301C86 301 43 301 21.5 301L0 301Z" fill="#00a258"></path></svg>