<svg id="visual" viewBox="0 0 900 200" width="900" height="200" xmlns="http://www.w3.org/2000/svg" xmlns:xlink="http://www.w3.org/1999/xlink" version="1.1"><rect x="0" y="0" width="900" height="200" fill="#ffffff"></rect><path d="M0 127L15 126C30 125 60 123 90 128.7C120 134.3 150 147.7 180 153.8C210 160 240 159 270 154.7C300 150.3 330 142.7 360 138C390 133.3 420 131.7 450 130.2C480 128.7 510 127.3 540 127C570 126.7 600 127.3 630 131.3C660 135.3 690 142.7 720 142C750 141.3 780 132.7 810 130.7C840 128.7 870 133.3 885 135.7L900 138L900 0L885 0C870 0 840 0 810 0C780 0 750 0 720 0C690 0 660 0 630 0C600 0 570 0 540 0C510 0 480 0 450 0C420 0 390 0 360 0C330 0 300 0 270 0C240 0 210 0 180 0C150 0 120 0 90 0C60 0 30 0 15 0L0 0Z" fill="#99ff97"></path><path d="M0 121L15 122.8C30 124.7 60 128.3 90 124.5C120 120.7 150 109.3 180 105.2C210 101 240 104 270 106.2C300 108.3 330 109.7 360 110.8C390 112 420 113 450 115.2C480 117.3 510 120.7 540 117.7C570 114.7 600 105.3 630 105.3C660 105.3 690 114.7 720 118.3C750 122 780 120 810 119C840 118 870 118 885 118L900 118L900 0L885 0C870 0 840 0 810 0C780 0 750 0 720 0C690 0 660 0 630 0C600 0 570 0 540 0C510 0 480 0 450 0C420 0 390 0 360 0C330 0 300 0 270 0C240 0 210 0 180 0C150 0 120 0 90 0C60 0 30 0 15 0L0 0Z" fill="#7be787"></path><path d="M0 71L15 71.7C30 72.3 60 73.7 90 76.5C120 79.3 150 83.7 180 83.2C210 82.7 240 77.3 270 77.3C300 77.3 330 82.7 360 84.2C390 85.7 420 83.3 450 82.3C480 81.3 510 81.7 540 83.5C570 85.3 600 88.7 630 90.3C660 92 690 92 720 91.5C750 91 780 90 810 87.5C840 85 870 81 885 79L900 77L900 0L885 0C870 0 840 0 810 0C780 0 750 0 720 0C690 0 660 0 630 0C600 0 570 0 540 0C510 0 480 0 450 0C420 0 390 0 360 0C330 0 300 0 270 0C240 0 210 0 180 0C150 0 120 0 90 0C60 0 30 0 15 0L0 0Z" fill="#5cd077"></path><path d="M0 69L15 67.7C30 66.3 60 63.7 90 59.5C120 55.3 150 49.7 180 47.7C210 45.7 240 47.3 270 49.3C300 51.3 330 53.7 360 56.8C390 60 420 64 450 66.7C480 69.3 510 70.7 540 69C570 67.3 600 62.7 630 62C660 61.3 690 64.7 720 63.3C750 62 780 56 810 52.8C840 49.7 870 49.3 885 49.2L900 49L900 0L885 0C870 0 840 0 810 0C780 0 750 0 720 0C690 0 660 0 630 0C600 0 570 0 540 0C510 0 480 0 450 0C420 0 390 0 360 0C330 0 300 0 270 0C240 0 210 0 180 0C150 0 120 0 90 0C60 0 30 0 15 0L0 0Z" fill="#3ab967"></path><path d="M0 22L15 22.2C30 22.3 60 22.7 90 25C120 27.3 150 31.7 180 34.7C210 37.7 240 39.3 270 38.2C300 37 330 33 360 32.7C390 32.3 420 35.7 450 35.7C480 35.7 510 32.3 540 31.3C570 30.3 600 31.7 630 31.2C660 30.7 690 28.3 720 28.2C750 28 780 30 810 29.3C840 28.7 870 25.3 885 23.7L900 22L900 0L885 0C870 0 840 0 810 0C780 0 750 0 720 0C690 0 660 0 630 0C600 0 570 0 540 0C510 0 480 0 450 0C420 0 390 0 360 0C330 0 300 0 270 0C240 0 210 0 180 0C150 0 120 0 90 0C60 0 30 0 15 0L0 0Z" fill="#00a258"></path></svg>